<?xml version="1.0" encoding="UTF-8" standalone="no"?>
<!DOCTYPE svg PUBLIC "-//W3C//DTD SVG 1.1//EN" "http://www.w3.org/Graphics/SVG/1.1/DTD/svg11.dtd">
<svg width="100%" height="100%" viewBox="0 0 100 100" version="1.1" xmlns="http://www.w3.org/2000/svg" xmlns:xlink="http://www.w3.org/1999/xlink" xml:space="preserve" xmlns:serif="http://www.serif.com/" style="fill-rule:evenodd;clip-rule:evenodd;stroke-linejoin:round;stroke-miterlimit:2;">
    <g id="business_unit" transform="matrix(0.236902,0,0,0.236902,49.264525,50.645443)">
        <g id="core">
            <g id="business_unit1" serif:id="business_unit" transform="matrix(1,0,0,1,-208.333333,-208.333333)">
                <g transform="matrix(0.416667,0,0,0.416667,0,0)">
                    <path d="M591,353C579.334,393.593 541.932,421.76 499.696,421.76C489.607,421.76 479.583,420.153 470,417L376,560C365,549 352,540 337,534L430,391C413.919,373.479 404.989,350.543 404.989,326.761C404.989,274.646 447.873,231.761 499.989,231.761C552.104,231.761 594.989,274.646 594.989,326.761C594.989,335.986 593.645,345.162 591,354L591,353ZM582,409C570,420 557,429 542,435L635,578C619.265,595.448 610.548,618.128 610.548,641.623C610.548,678.717 632.274,712.558 666,728L668,729C679.939,734.183 692.816,736.858 705.832,736.858C757.947,736.858 800.832,693.973 800.832,641.858C800.832,589.742 757.947,546.858 705.832,546.858C695.341,546.858 684.923,548.595 675,552L582,408L582,409ZM365,578L370,584C378,594 383,606 387,619L592,619C588.793,634.502 588.793,650.498 592,666L387,666C376.203,707.807 338.197,737.246 295.018,737.246C242.902,737.246 200.018,694.361 200.018,642.246C200.018,590.13 242.902,547.246 295.018,547.246C321.61,547.246 347.017,558.411 365,578Z" style="fill:white;fill-rule:nonzero;"/>
                </g>
            </g>
            <g id="business_unit2" serif:id="business_unit">
            </g>
        </g>
    </g>
</svg>
