<?xml version="1.0" encoding="UTF-8" standalone="no"?>
<!DOCTYPE svg PUBLIC "-//W3C//DTD SVG 1.1//EN" "http://www.w3.org/Graphics/SVG/1.1/DTD/svg11.dtd">
<svg width="100%" height="100%" viewBox="0 0 100 100" version="1.1" xmlns="http://www.w3.org/2000/svg" xmlns:xlink="http://www.w3.org/1999/xlink" xml:space="preserve" xmlns:serif="http://www.serif.com/" style="fill-rule:evenodd;clip-rule:evenodd;stroke-linejoin:round;stroke-miterlimit:2;">
    <g id="business_unit_affiliation" transform="matrix(0.238295,0,0,0.238295,49.82238,50.35524)">
        <g id="core">
            <g id="business_unit_affiliation1" serif:id="business_unit_affiliation" transform="matrix(1,0,0,1,-208.333333,-208.333333)">
                <g transform="matrix(0.416667,0,0,0.416667,0,0)">
                    <path d="M488,796C516,796 500,777 500,777C472.798,742.93 457.982,700.597 458,657C457.825,629.742 463.628,602.774 475,578L477,574C478.655,571.927 479.557,569.352 479.557,566.699C479.557,560.335 474.364,555.078 468,555C460.363,554.168 452.68,553.834 445,554C324.408,554.022 221.086,643.624 204,763C204,775 208,798 246,798L483,798C487,796 487,796 488,796ZM653,512C652.834,511.999 652.667,511.999 652.501,511.999C574.328,511.999 510.001,576.326 510.001,654.499C510.001,732.672 574.328,796.999 652.501,796.999C730.485,796.999 794.726,732.983 795,655C795.001,654.833 795.001,654.666 795.001,654.499C795.001,576.515 730.984,512.273 653,512ZM653,557C670.513,557.108 684.892,571.487 685,589C685.123,596.286 682.64,603.381 678,609L701,652C702,654 701,656 699,656C695.003,656.814 691.242,658.524 688,661C686,662 684,661 684,660L662,619C659.066,619.775 656.033,620.112 653,620C635.487,619.892 621.108,605.513 621,588C620.999,587.926 620.999,587.851 620.999,587.777C620.999,570.88 634.903,556.977 651.799,556.977C652.2,556.977 652.6,556.984 653,557ZM633,639L611,680C617.265,686.024 620.867,694.31 621,703C621,720.555 606.555,735 589,735C571.445,735 557,720.555 557,703C557,685.445 571.445,671 589,671L593,671L616,628C617,626 618,626 621,627C624.18,629.786 627.936,631.835 632,633C633,637 634,639 633,639ZM716,737C703.17,737.07 691.421,729.629 686,718L642,718C640,718 638,716 640,714C640.883,711.087 641.222,708.036 641,705L641,703C641,701 642,699 643,699L685,699C687.541,683.964 700.751,672.885 716,673C733.513,673.108 747.892,687.487 748,705C746.844,722.09 733.09,735.844 716,737Z" style="fill:white;fill-rule:nonzero;"/>
                </g>
                <g transform="matrix(0.416667,0,0,0.416667,0,0)">
                    <circle cx="446" cy="362" r="161" style="fill:white;"/>
                </g>
            </g>
            <g id="business_unit_affiliation2" serif:id="business_unit_affiliation">
            </g>
        </g>
    </g>
</svg>
