<?xml version="1.0" encoding="UTF-8" standalone="no"?>
<!DOCTYPE svg PUBLIC "-//W3C//DTD SVG 1.1//EN" "http://www.w3.org/Graphics/SVG/1.1/DTD/svg11.dtd">
<svg width="100%" height="100%" viewBox="0 0 100 100" version="1.1" xmlns="http://www.w3.org/2000/svg" xmlns:xlink="http://www.w3.org/1999/xlink" xml:space="preserve" xmlns:serif="http://www.serif.com/" style="fill-rule:evenodd;clip-rule:evenodd;stroke-linejoin:round;stroke-miterlimit:2;">
    <g id="core">
    </g>
    <g transform="matrix(0.242714,0,0,0.242714,50.565452,50.564787)">
        <g transform="matrix(1,0,0,1,-208.333333,-208.333333)">
            <g transform="matrix(4.166667,0,0,4.166667,0,0)">
                <path d="M71.6,55.6C71.6,56.5 71,57.2 70.5,57.9L69.5,59.3L69.2,61.1C69.1,62 69,62.9 68.4,63.4C67.8,63.9 66.9,64.1 66,64.3C65.4,64.3 64.8,64.4 64.3,64.6C63.8,64.8 63.3,65.2 63,65.5C62.2,66.1 61.4,66.6 60.6,66.6C59.8,66.6 59.1,66.1 58.4,65.6C57.8,65.2 57.4,64.8 56.9,64.6L55.1,64.3C54.2,64.1 53.3,64 52.8,63.4C52.3,62.8 52.1,62 51.9,61.1L51.6,59.3L50.7,58C50.1,57.2 49.6,56.5 49.6,55.6C49.6,54.9 50.1,54.1 50.6,53.4C51,52.9 51.4,52.4 51.6,51.9C51.8,51.4 51.8,50.8 51.9,50.2C52.1,49.2 52.2,48.3 52.7,47.8C53.2,47.3 54.2,47.1 55.1,47C55.7,47 56.3,46.8 56.9,46.6C57.378,46.371 57.817,46.067 58.2,45.7C59,45.2 59.7,44.7 60.6,44.7C61.3,44.7 62.1,45.2 62.8,45.7L64.3,46.7L66,47C67,47.1 67.8,47.2 68.4,47.8C69,48.4 69.1,49.3 69.2,50.2C69.2,50.8 69.4,51.4 69.6,51.9C69.8,52.5 70.2,53 70.6,53.5C71.1,54.2 71.6,54.9 71.6,55.6ZM56.2,55.6C56.2,53.4 58,51.5 60.2,51.5C62.4,51.5 64.4,53.4 64.4,55.6C64.4,57.8 62.5,59.7 60.3,59.7C58.1,59.7 56.2,57.9 56.2,55.7L56.2,55.6ZM69.6,67C68.7,67.5 67.8,67.7 67,67.9L66.2,68C66,68.2 65.6,68.2 65.3,68.2L64.6,68.6L63.9,69.1C63.4,69.5 62.9,69.9 62.1,70.1L69.1,79.9L70.8,75.2L75.4,75.2L69.6,67ZM58.4,70L51.5,79.9L49.8,75.2L45,75.2L51,67.2C51.9,67.6 52.8,67.8 53.5,68L54.3,68.2L55.1,68.3L55.8,68.7C56.3,69.1 57.1,69.7 58.3,70L58.4,70ZM60.3,48C64.524,48 68,51.476 68,55.7C68,59.924 64.524,63.4 60.3,63.4C56,63.4 52.6,60.1 52.6,55.7C52.6,51.3 56,48 60.3,48ZM44.2,20.3L60.2,29.1C60.6,29.4 60.9,29.8 60.9,30.3L60.9,31.5C60.9,32.2 60.3,32.8 59.6,32.8L25.9,32.8C25.2,32.8 24.6,32.2 24.6,31.5L24.6,30.2C24.592,29.78 24.826,29.391 25.2,29.2L41.2,20.2C41.7,20 42.2,19.8 42.7,19.8C43.2,19.8 43.7,20 44.2,20.3ZM39.5,26.9C39.5,28.683 40.967,30.15 42.75,30.15C44.533,30.15 46,28.683 46,26.9C46,25.1 44.6,23.7 42.7,23.7C40.8,23.7 39.5,25.1 39.5,26.9ZM56.4,38L56.4,45.3L54.7,45.6C53.9,45.7 53.1,45.8 52.5,46.1L52.5,38C52.5,37.3 53.1,36.7 53.8,36.7L55,36.7C55.7,36.7 56.3,37.3 56.3,38L56.4,38ZM48.6,52.2L50,52.2L49.2,53.3C48.6,54.2 47.9,55.1 47.9,56C47.9,56.9 48.5,57.8 49.1,58.7L26,58.7C25.3,58.7 24.7,58.1 24.7,57.4L24.7,56C24.752,53.881 26.481,52.152 28.6,52.1L29.2,52.1L29.2,37.9C29.2,37.2 29.8,36.6 30.5,36.6L31.8,36.6C32.5,36.6 33.1,37.2 33.1,37.9L33.1,52.2L37,52.2L37,37.9C37,37.2 37.6,36.6 38.3,36.6L39.6,36.6C40.3,36.6 40.9,37.2 40.9,37.9L40.9,52.2L44.8,52.2L44.8,37.9C44.8,37.2 45.4,36.6 46.1,36.6L47.4,36.6C48.1,36.6 48.7,37.2 48.7,37.9L48.7,52.2L48.6,52.2Z" style="fill:white;"/>
            </g>
        </g>
    </g>
</svg>
