<?xml version="1.0" encoding="UTF-8" standalone="no"?>
<!DOCTYPE svg PUBLIC "-//W3C//DTD SVG 1.1//EN" "http://www.w3.org/Graphics/SVG/1.1/DTD/svg11.dtd">
<svg width="100%" height="100%" viewBox="0 0 100 100" version="1.1" xmlns="http://www.w3.org/2000/svg" xmlns:xlink="http://www.w3.org/1999/xlink" xml:space="preserve" xmlns:serif="http://www.serif.com/" style="fill-rule:evenodd;clip-rule:evenodd;stroke-linejoin:round;stroke-miterlimit:2;">
    <g id="service_relationship" transform="matrix(0.241573,0,0,0.241573,49.672204,49.672204)">
        <g id="multi-entity">
            <g id="service_relationship1" serif:id="service_relationship" transform="matrix(1,0,0,1,-208.333333,-208.333333)">
                <g transform="matrix(0.416667,0,0,0.416667,0,0)">
                    <path d="M770,317L710,317C697,317 684,311 674,302L626,261C616,253 603,247 590,247L473,247C458,247 444,253 433,264L371,315C366,319 366,327 370,332L389,350C402,360 419,362 432,353L487,320C494,315 504,317 510,323L683,491C687,495 690,501 690,507L690,552C690,564 699,577 710,577L770,577C781,577 790,568 790,556L790,337C790,325 781,317 770,317ZM600,497L492,392L462,410C447,419 430,424 413,424C392,424 370,416 353,402L314,370C305,363 300,355 299,344C297,333 289,327 279,327L210,327C199,327 190,333 190,345L190,527C190,539 199,547 210,547L250,547C253,547 257,536 261,531C276,511 298,500 322,497C346,495 369,503 388,520L513,634C524,644 532,655 537,669C540,676 548,678 553,673L600,626C624,602 642,546 620,520L600,497ZM349,571C343.801,566.076 336.906,563.329 329.746,563.329C320.734,563.329 312.255,567.679 307,575C296,589 298,609 311,621L436,734C442,740 450,742 458,741C466,740 473,736 478,729C489,715 487,695 474,683L349,571Z" style="fill:white;fill-rule:nonzero;"/>
                </g>
            </g>
            <g id="service_relationship2" serif:id="service_relationship">
            </g>
        </g>
    </g>
</svg>
